# xmcd
#
# Track frame offsets: 
#        150
#        22668
#        40583
#        61631
#        82275
#        98336
#        111652
#        129813
#        146612
#        164971
#        183080
#        206371
#
# Disc length: 2962 seconds
#
# Revision: 0
# Processed by: cddbd v1.5.2PL0 Copyright (c) Steve Scherf et al.
# Submitted via: ExactAudioCopy v0.99pb5
#
DISCID=950b900c
DTITLE=Deano and The Housejacks - Basura Blanca
DYEAR=2007
DGENRE=Country
TTITLE0=Ellis Unit One
TTITLE1=Guadalupe River
TTITLE2=Honey Creek
TTITLE3=GoodBye To New Mexico
TTITLE4=Big In Bulverde
TTITLE5=Heather's Song
TTITLE6=Me And Stoney Johnson
TTITLE7=Scene Of The Crime
TTITLE8=If You Don't Die, You Live Through It
TTITLE9=Mad As A Hatter
TTITLE10=Your Port In A Storm
TTITLE11=The Ballad Of The Blue-Haired Love
EXTD=
EXTT0=
EXTT1=
EXTT2=
EXTT3=
EXTT4=
EXTT5=
EXTT6=
EXTT7=
EXTT8=
EXTT9=
EXTT10=
EXTT11=
PLAYORDER=
